<svg width="211" height="184" viewBox="0 0 211 184" fill="none" xmlns="http://www.w3.org/2000/svg">
    <path d="M171 164C171 152.954 179.954 144 191 144C202.046 144 211 152.954 211 164C211 175.046 202.046 184 191 184C179.954 184 171 175.046 171 164Z" fill="#C67C4E"/>
    <path d="M193.132 155.665C193.132 156.585 192.398 157.33 191.492 157.33C190.587 157.33 189.853 156.585 189.853 155.665C189.853 154.745 190.587 154 191.492 154C192.398 154 193.132 154.745 193.132 155.665Z" fill="white"/>
    <path d="M186.574 158.662H181.984C181.723 158.662 181.473 158.768 181.288 158.955C181.104 159.142 181 159.396 181 159.661V163.324C181 163.456 181.025 163.586 181.075 163.707C181.124 163.828 181.197 163.938 181.288 164.031C181.38 164.124 181.488 164.197 181.607 164.248C181.727 164.298 181.855 164.324 181.984 164.323H186.574C186.835 164.323 187.085 164.218 187.27 164.031C187.454 163.844 187.558 163.589 187.558 163.324V159.661C187.558 159.396 187.454 159.142 187.27 158.955C187.085 158.767 186.835 158.662 186.574 158.662Z" fill="white"/>
    <path d="M184.608 165.273C184.608 165.79 184.808 166.286 185.165 166.655H190.495V165.271C190.495 165.183 190.461 165.099 190.399 165.037C190.338 164.975 190.255 164.94 190.168 164.94H184.934C184.847 164.94 184.764 164.975 184.703 165.038C184.642 165.1 184.607 165.185 184.608 165.273Z" fill="white"/>
    <path fill-rule="evenodd" clip-rule="evenodd" d="M199.898 168.947C200.395 169.31 200.754 169.836 200.914 170.437C200.958 170.599 200.986 170.764 200.999 170.932C201.007 171.018 200.981 171.104 200.927 171.171C200.874 171.238 200.796 171.281 200.712 171.29C200.789 171.57 200.81 171.863 200.772 172.151C200.734 172.439 200.639 172.716 200.491 172.966C200.344 173.215 200.148 173.431 199.915 173.601C199.683 173.77 199.418 173.889 199.139 173.951C198.859 174.013 198.57 174.016 198.289 173.96C198.008 173.904 197.741 173.791 197.505 173.626C197.269 173.462 197.069 173.25 196.916 173.004C196.764 172.758 196.662 172.482 196.619 172.195C196.575 172.249 196.534 172.303 196.495 172.359C196.463 172.406 196.418 172.444 196.367 172.469C196.315 172.494 196.258 172.504 196.201 172.5C196.144 172.495 196.089 172.475 196.042 172.442C195.995 172.409 195.957 172.364 195.933 172.312C195.845 172.132 195.78 171.942 195.74 171.745C195.704 171.786 195.66 171.82 195.611 171.844C195.561 171.869 195.508 171.883 195.453 171.886H189.834C189.796 172.424 189.559 172.928 189.17 173.296C188.782 173.664 188.27 173.868 187.739 173.868C187.207 173.868 186.696 173.664 186.307 173.296C185.918 172.928 185.681 172.424 185.644 171.886C185.49 171.898 185.335 171.881 185.188 171.836C184.987 171.77 184.805 171.656 184.656 171.504C184.507 171.353 184.396 171.167 184.332 170.963C183.99 169.878 184.836 168.21 185.365 167.321H190.376C190.255 167.655 190.236 168.018 190.323 168.362C190.409 168.707 190.597 169.017 190.861 169.251L191.114 164.887C191.119 164.802 191.091 164.719 191.037 164.654C190.983 164.589 190.907 164.548 190.823 164.539L189.211 164.358C189.076 164.343 188.945 164.3 188.827 164.23C188.709 164.161 188.607 164.067 188.526 163.955C188.446 163.843 188.39 163.715 188.361 163.58C188.332 163.445 188.332 163.305 188.36 163.169L189.3 158.603C189.339 158.425 189.417 158.259 189.528 158.115C189.639 157.972 189.781 157.856 189.942 157.776C190.104 157.696 190.281 157.654 190.46 157.654C190.64 157.653 190.817 157.693 190.98 157.772C191.207 157.887 191.392 158.071 191.511 158.299C191.63 158.527 191.675 158.786 191.641 159.042L191.662 159.065C192.002 159.448 192.573 160.086 194.469 160.641H196.711C196.971 160.641 197.22 160.745 197.404 160.931C197.588 161.118 197.691 161.37 197.692 161.634V162.295C197.691 162.559 197.588 162.811 197.404 162.998C197.22 163.184 196.971 163.288 196.711 163.288H196.083C196.163 164.557 196.689 165.763 197.393 166.238C197.656 166.414 197.872 166.652 198.023 166.932C198.175 167.212 198.258 167.525 198.264 167.844C198.263 168.046 198.236 168.246 198.185 168.441C198.796 168.405 199.401 168.583 199.898 168.947ZM186.769 172.827C187.035 173.072 187.38 173.207 187.739 173.207C188.097 173.207 188.442 173.072 188.708 172.827C188.974 172.583 189.141 172.248 189.176 171.886H186.301C186.337 172.248 186.504 172.583 186.769 172.827ZM192.821 169.569H194.095V162.275C193.032 162.162 192.023 161.742 191.187 161.065L190.943 162.136C190.925 162.214 190.936 162.296 190.974 162.366C191.011 162.437 191.073 162.491 191.146 162.519L192.753 163.128C192.956 163.204 193.128 163.348 193.243 163.535C193.357 163.722 193.407 163.942 193.384 164.161L192.821 169.569ZM198.231 173.242C198.439 173.312 198.66 173.334 198.877 173.305C199.113 173.275 199.338 173.185 199.532 173.045C199.726 172.905 199.882 172.719 199.988 172.502C200.094 172.286 200.145 172.046 200.137 171.805C200.13 171.563 200.063 171.327 199.944 171.118L199.867 171.057C198.996 170.909 198.101 171.087 197.35 171.56L197.251 171.687C197.227 171.908 197.252 172.132 197.326 172.342C197.4 172.552 197.52 172.742 197.676 172.898C197.833 173.054 198.022 173.171 198.231 173.242Z" fill="white"/>
    <path fill-rule="evenodd" clip-rule="evenodd" d="M11.3756 50.9157C14.2887 49.223 17.8695 49.2526 20.7553 50.9932C23.6127 52.7692 25.3494 55.9389 25.3332 59.3486C25.2667 62.7359 23.4045 65.92 21.0767 68.3815C19.7332 69.8085 18.2302 71.0704 16.5985 72.1414C16.4305 72.2386 16.2464 72.3036 16.0554 72.3333C15.8715 72.3255 15.6925 72.2712 15.5344 72.1753C13.0433 70.5661 10.8579 68.5121 9.08319 66.112C7.5982 64.1085 6.75453 61.688 6.66675 59.1792C6.66482 55.763 8.46244 52.6084 11.3756 50.9157ZM13.059 60.593C13.549 61.8011 14.7057 62.5891 15.9889 62.5891C16.8296 62.5952 17.6377 62.2584 18.2332 61.654C18.8287 61.0495 19.1621 60.2275 19.1591 59.3712C19.1636 58.0641 18.394 56.8831 17.2098 56.3797C16.0255 55.8763 14.6601 56.1498 13.7512 57.0725C12.8422 57.9951 12.5689 59.385 13.059 60.593Z" fill="#C67C4E"/>
    <path d="M190 146V3.5L178 9L58 15.5V39.5L33 41L33.5 70.5H16.5" stroke="#C67C4E" stroke-width="4" stroke-linecap="round"/>
</svg>
